<?xml version="1.0" standalone="no"?>
<!DOCTYPE svg PUBLIC "-//W3C//DTD SVG 20010904//EN"
 "http://www.w3.org/TR/2001/REC-SVG-20010904/DTD/svg10.dtd">
<svg version="1.0" xmlns="http://www.w3.org/2000/svg"
 width="300.000000pt" height="300.000000pt" viewBox="0 0 300.000000 300.000000"
 preserveAspectRatio="xMidYMid meet">

<g transform="translate(0.000000,300.000000) scale(0.100000,-0.100000)"
fill="#000000" stroke="none">
<path d="M1403 2410 c-55 -113 -151 -312 -213 -443 l-114 -238 -161 -84 c-88
-47 -158 -85 -155 -85 12 0 525 191 533 199 5 5 51 100 103 212 52 112 99 207
103 212 4 4 18 -18 30 -48 13 -30 28 -55 34 -55 12 0 157 78 157 84 0 1 -49
104 -109 227 l-109 224 -99 -205z"/>
<path d="M1599 2002 l-147 -77 -26 -60 c-14 -33 -26 -63 -26 -66 0 -4 53 13
118 37 64 24 117 44 117 44 1 0 59 -121 130 -270 l129 -270 108 0 c59 0 108 2
108 5 0 3 -49 106 -109 230 l-109 224 184 107 c101 60 182 109 181 111 -2 2
-268 -97 -379 -142 -15 -6 -26 11 -68 99 -27 58 -53 106 -57 105 -4 -1 -74
-35 -154 -77z"/>
<path d="M1291 1656 l-304 -112 -48 -94 c-26 -52 -48 -98 -48 -102 -1 -5 49
-8 110 -8 l111 0 273 161 273 160 -22 52 c-13 28 -27 52 -32 53 -5 2 -146 -48
-313 -110z"/>
<path d="M460 1052 l0 -162 35 0 35 0 0 87 0 88 88 -88 c48 -48 91 -87 95 -87
4 0 7 70 7 155 l0 155 -25 0 c-14 0 -28 0 -32 0 -5 0 -10 -37 -13 -82 l-5 -83
-92 89 -93 90 0 -162z"/>
<path d="M1055 1058 c-38 -83 -71 -155 -73 -160 -2 -4 12 -8 31 -8 27 0 37 5
42 20 6 17 15 20 75 20 59 0 68 -2 73 -20 4 -15 14 -20 41 -20 l35 0 -55 118
c-31 64 -64 136 -75 160 -10 23 -20 42 -21 42 -2 -1 -34 -69 -73 -152z m93
-31 c7 -18 12 -36 12 -40 0 -9 -54 -9 -63 -1 -6 7 23 74 33 74 3 0 11 -15 18
-33z"/>
<path d="M1330 1048 l0 -158 30 0 29 0 3 72 3 72 44 -68 c47 -73 55 -79 96
-74 l26 3 -40 57 -41 57 25 25 c38 38 37 97 -1 136 -21 21 -36 26 -99 30 l-75
5 0 -157z m134 70 c16 -26 -4 -52 -43 -56 -30 -3 -31 -2 -31 38 0 40 1 41 31
38 18 -2 37 -11 43 -20z"/>
<path d="M1614 1201 c-2 -2 -4 -73 -4 -158 l0 -153 95 0 95 0 0 30 0 30 -66 0
-65 0 3 33 c3 31 4 32 56 35 50 3 52 4 52 33 0 29 -1 29 -55 29 -54 0 -55 0
-55 30 l0 30 65 0 65 0 0 33 0 32 -91 0 c-50 0 -93 -2 -95 -4z"/>
<path d="M1909 1195 c-15 -8 -32 -29 -38 -46 -16 -46 3 -77 74 -120 68 -41 80
-64 40 -79 -20 -8 -35 -6 -60 6 -28 13 -36 13 -54 2 -27 -17 -26 -22 5 -47 35
-27 85 -36 128 -21 43 14 66 44 66 86 0 42 -28 75 -89 104 -34 15 -51 30 -51
42 0 22 41 34 69 18 15 -8 27 -8 41 0 27 14 25 24 -6 49 -31 25 -87 27 -125 6z"/>
<path d="M2103 1193 c-12 -30 2 -48 40 -51 l37 -3 0 -125 0 -124 35 0 35 0 0
125 0 125 35 0 c33 0 35 2 35 33 l0 32 -106 0 c-73 0 -108 -4 -111 -12z"/>
<path d="M2396 1064 c-37 -80 -70 -152 -73 -160 -9 -24 54 -18 67 6 9 17 21
20 75 20 54 0 66 -3 75 -20 7 -13 21 -20 40 -20 17 0 30 3 30 6 0 5 -124 274
-138 301 -6 9 -30 -34 -76 -133z m89 -34 c19 -36 13 -50 -20 -50 -13 0 -27 4
-30 10 -5 9 20 70 30 70 2 0 12 -14 20 -30z"/>
<path d="M195 1053 c-38 -82 -70 -151 -72 -155 -3 -5 12 -8 31 -8 26 0 36 5
41 20 6 17 15 20 75 20 59 0 68 -2 73 -20 4 -15 14 -20 41 -20 l35 0 -55 118
c-31 64 -63 134 -71 155 -8 20 -18 37 -22 37 -4 0 -38 -66 -76 -147z m94 -24
c16 -46 14 -50 -16 -47 -35 4 -38 11 -23 48 16 38 25 38 39 -1z"/>
<path d="M770 1170 c0 -28 2 -30 40 -30 l40 0 0 -125 0 -125 30 0 30 0 0 124
0 125 38 3 c32 3 37 7 40 31 l3 27 -110 0 -111 0 0 -30z"/>
<path d="M2660 1045 l0 -155 36 0 35 0 -2 65 c-1 36 0 67 2 69 2 3 24 -27 49
-65 43 -65 47 -69 83 -69 l38 0 -43 61 c-37 53 -40 63 -27 73 47 34 52 105 10
147 -27 27 -35 29 -105 29 l-76 0 0 -155z m140 80 c17 -20 3 -54 -26 -61 -39
-10 -51 0 -46 40 4 32 8 36 32 36 15 0 33 -7 40 -15z"/>
</g>
</svg>
